# xmcd
#
# Track frame offsets:
#	150
#	16019
#	28553
#	40863
#	52699
#	69007
#	84119
#	101319
#	116464
#	129345
#	142614
#	157552
#	172008
#	186698
#
# Disc length: 2625 seconds
#
# Revision: 1
# Processed by: cddbd v1.5.2PL0 Copyright (c) Steve Scherf et al.
# Submitted via: audiograbber 1.83.01
#
DISCID=920a3f0e
DTITLE=Cattle Company - Love to be loved
DYEAR=1997
DGENRE=Country
TTITLE0=Love to be loved
TTITLE1=All your love
TTITLE2=I´m wrigth, your wrong i win
TTITLE3=She´s leavin´ me
TTITLE4=Out on the highway
TTITLE5=I´m not the one
TTITLE6=Watch the moon
TTITLE7=We are one
TTITLE8=Love gets in the way
TTITLE9=Let it breath
TTITLE10=Hero
TTITLE11=Chanca in me
TTITLE12=Reckless heart
TTITLE13=Drink talkin´ girl
EXTD=
EXTT0=
EXTT1=
EXTT2=
EXTT3=
EXTT4=
EXTT5=
EXTT6=
EXTT7=
EXTT8=
EXTT9=
EXTT10=
EXTT11=
EXTT12=
EXTT13=
PLAYORDER=
